<svg xmlns="http://www.w3.org/2000/svg" xmlns:xlink="http://www.w3.org/1999/xlink" width="40" zoomAndPan="magnify" viewBox="0 0 30 30.000001" height="40" preserveAspectRatio="xMidYMid meet" version="1.0"><defs><clipPath id="80348c5934"><path d="M 0.484375 0 L 29.515625 0 L 29.515625 29.03125 L 0.484375 29.03125 Z M 0.484375 0 " clip-rule="nonzero"/></clipPath><clipPath id="e6228df050"><path d="M 5.132812 3.902344 L 25.097656 3.902344 L 25.097656 25.1875 L 5.132812 25.1875 Z M 5.132812 3.902344 " clip-rule="nonzero"/></clipPath><clipPath id="e17080775e"><path d="M 6 3.902344 L 24.230469 3.902344 C 24.460938 3.902344 24.679688 3.992188 24.84375 4.15625 C 25.003906 4.316406 25.097656 4.539062 25.097656 4.765625 L 25.097656 24.265625 C 25.097656 24.496094 25.003906 24.714844 24.84375 24.878906 C 24.679688 25.039062 24.460938 25.132812 24.230469 25.132812 L 6 25.132812 C 5.769531 25.132812 5.550781 25.039062 5.386719 24.878906 C 5.226562 24.714844 5.132812 24.496094 5.132812 24.265625 L 5.132812 4.765625 C 5.132812 4.539062 5.226562 4.316406 5.386719 4.15625 C 5.550781 3.992188 5.769531 3.902344 6 3.902344 Z M 6 3.902344 " clip-rule="nonzero"/></clipPath><clipPath id="7ef4ba2612"><path d="M 5.132812 5.304688 L 25.457031 5.304688 L 25.457031 23.449219 L 5.132812 23.449219 Z M 5.132812 5.304688 " clip-rule="nonzero"/></clipPath><clipPath id="ee6d91358d"><path d="M 22.347656 3.929688 L 25.097656 3.929688 L 25.097656 6.675781 L 22.347656 6.675781 Z M 22.347656 3.929688 " clip-rule="nonzero"/></clipPath><clipPath id="d11b239243"><path d="M 23.722656 3.929688 C 22.964844 3.929688 22.347656 4.542969 22.347656 5.304688 C 22.347656 6.0625 22.964844 6.675781 23.722656 6.675781 C 24.480469 6.675781 25.097656 6.0625 25.097656 5.304688 C 25.097656 4.542969 24.480469 3.929688 23.722656 3.929688 Z M 23.722656 3.929688 " clip-rule="nonzero"/></clipPath></defs><g clip-path="url(#80348c5934)"><path fill="#212121" d="M 0.484375 0 L 29.515625 0 L 29.515625 29.03125 L 0.484375 29.03125 Z M 0.484375 0 " fill-opacity="1" fill-rule="nonzero"/><path fill="#ffffff" d="M 7.015625 0 L 22.96875 0 C 24.769531 0 26.402344 0.730469 27.59375 1.921875 C 28.769531 3.09375 29.515625 4.746094 29.515625 6.53125 L 29.515625 22.484375 C 29.515625 24.285156 28.769531 25.917969 27.59375 27.109375 C 26.402344 28.285156 24.769531 29.03125 22.96875 29.03125 L 7.015625 29.03125 C 5.230469 29.03125 3.578125 28.285156 2.40625 27.109375 C 1.214844 25.917969 0.484375 24.285156 0.484375 22.484375 L 0.484375 6.53125 C 0.484375 4.746094 1.214844 3.09375 2.40625 1.921875 C 3.578125 0.730469 5.230469 0 7.015625 0 Z M 22.96875 2.585938 L 7.015625 2.585938 C 5.925781 2.585938 4.941406 3.027344 4.226562 3.742188 C 3.511719 4.457031 3.070312 5.441406 3.070312 6.53125 L 3.070312 22.484375 C 3.070312 23.574219 3.511719 24.558594 4.226562 25.273438 C 4.941406 26.003906 5.925781 26.445312 7.015625 26.445312 L 22.96875 26.445312 C 24.054688 26.445312 25.042969 26.003906 25.757812 25.273438 C 26.488281 24.558594 26.929688 23.574219 26.929688 22.484375 L 26.929688 6.53125 C 26.929688 5.441406 26.488281 4.457031 25.757812 3.742188 C 25.042969 3.027344 24.054688 2.585938 22.96875 2.585938 Z M 22.96875 2.585938 " fill-opacity="1" fill-rule="nonzero"/></g><path fill="#ffffff" d="M 23.136719 5.066406 C 23.496094 5.066406 23.835938 5.203125 24.054688 5.441406 C 24.292969 5.679688 24.449219 6.003906 24.449219 6.359375 C 24.449219 6.71875 24.292969 7.058594 24.054688 7.28125 C 23.835938 7.515625 23.496094 7.671875 23.136719 7.671875 C 22.78125 7.671875 22.457031 7.515625 22.21875 7.28125 C 21.980469 7.058594 21.84375 6.71875 21.84375 6.359375 C 21.84375 6.003906 21.980469 5.679688 22.21875 5.441406 C 22.457031 5.203125 22.78125 5.066406 23.136719 5.066406 Z M 23.136719 5.066406 " fill-opacity="1" fill-rule="nonzero"/><path fill="#ffffff" d="M 14.992188 7.464844 C 16.949219 7.464844 18.699219 8.265625 19.976562 9.523438 C 21.25 10.800781 22.050781 12.570312 22.050781 14.507812 C 22.050781 16.464844 21.25 18.214844 19.976562 19.492188 C 18.699219 20.765625 16.949219 21.566406 14.992188 21.566406 C 13.050781 21.566406 11.285156 20.765625 10.007812 19.492188 C 8.75 18.214844 7.949219 16.464844 7.949219 14.507812 C 7.949219 12.570312 8.75 10.800781 10.007812 9.523438 C 11.285156 8.265625 13.050781 7.464844 14.992188 7.464844 Z M 18.136719 11.378906 C 17.339844 10.578125 16.214844 10.070312 14.992188 10.070312 C 13.765625 10.070312 12.660156 10.578125 11.863281 11.378906 C 11.0625 12.175781 10.550781 13.28125 10.550781 14.507812 C 10.550781 15.730469 11.0625 16.855469 11.863281 17.652344 C 12.660156 18.453125 13.765625 18.945312 14.992188 18.945312 C 16.214844 18.945312 17.339844 18.453125 18.136719 17.652344 C 18.9375 16.855469 19.429688 15.730469 19.429688 14.507812 C 19.429688 13.28125 18.9375 12.175781 18.136719 11.378906 Z M 18.136719 11.378906 " fill-opacity="1" fill-rule="nonzero"/><g clip-path="url(#e6228df050)"><g clip-path="url(#e17080775e)"><path fill="#212121" d="M 5.132812 3.902344 L 25.097656 3.902344 L 25.097656 25.109375 L 5.132812 25.109375 Z M 5.132812 3.902344 " fill-opacity="1" fill-rule="nonzero"/></g></g><g clip-path="url(#7ef4ba2612)"><path fill="#ffffff" d="M 19.226562 5.339844 C 18.894531 5.328125 18.542969 5.386719 18.1875 5.5 C 17.484375 5.730469 16.746094 6.175781 15.988281 6.792969 C 15.691406 7.03125 15.390625 7.308594 15.089844 7.601562 C 14.796875 7.316406 14.503906 7.046875 14.210938 6.8125 C 13.457031 6.195312 12.71875 5.75 12.015625 5.523438 C 11.3125 5.292969 10.613281 5.289062 10.039062 5.621094 C 9.464844 5.949219 9.121094 6.558594 8.96875 7.28125 C 8.8125 8.003906 8.828125 8.867188 8.984375 9.828125 C 9.039062 10.164062 9.113281 10.515625 9.203125 10.875 C 8.875 10.972656 8.554688 11.078125 8.257812 11.191406 C 7.367188 11.542969 6.628906 11.957031 6.089844 12.453125 C 5.554688 12.949219 5.207031 13.550781 5.207031 14.214844 C 5.207031 14.875 5.554688 15.476562 6.089844 15.972656 C 6.628906 16.46875 7.367188 16.886719 8.257812 17.234375 C 8.574219 17.359375 8.917969 17.46875 9.269531 17.574219 C 9.144531 18.050781 9.042969 18.511719 8.972656 18.945312 C 8.816406 19.910156 8.800781 20.773438 8.953125 21.496094 C 9.109375 22.222656 9.453125 22.832031 10.03125 23.167969 C 10.605469 23.5 11.308594 23.492188 12.015625 23.261719 C 12.71875 23.035156 13.457031 22.589844 14.214844 21.972656 C 14.507812 21.734375 14.804688 21.460938 15.105469 21.171875 C 15.402344 21.464844 15.703125 21.738281 16 21.976562 C 16.753906 22.59375 17.492188 23.039062 18.195312 23.265625 C 18.898438 23.496094 19.597656 23.5 20.171875 23.171875 C 20.746094 22.839844 21.089844 22.230469 21.246094 21.507812 C 21.398438 20.785156 21.382812 19.921875 21.226562 18.960938 C 21.15625 18.519531 21.054688 18.058594 20.925781 17.582031 C 21.289062 17.476562 21.644531 17.363281 21.96875 17.234375 C 22.859375 16.886719 23.597656 16.46875 24.136719 15.972656 C 24.675781 15.476562 25.023438 14.875 25.023438 14.214844 C 25.023438 13.550781 24.675781 12.949219 24.136719 12.453125 C 23.597656 11.957031 22.859375 11.542969 21.96875 11.191406 C 21.667969 11.074219 21.34375 10.96875 21.011719 10.871094 C 21.101562 10.507812 21.179688 10.15625 21.230469 9.820312 C 21.386719 8.855469 21.402344 7.992188 21.25 7.269531 C 21.09375 6.542969 20.75 5.933594 20.171875 5.597656 C 19.882812 5.433594 19.5625 5.351562 19.226562 5.339844 Z M 19.1875 6.214844 C 19.398438 6.222656 19.578125 6.273438 19.734375 6.359375 C 20.039062 6.539062 20.269531 6.882812 20.390625 7.453125 C 20.511719 8.019531 20.507812 8.789062 20.363281 9.679688 C 20.3125 9.984375 20.242188 10.308594 20.160156 10.640625 C 19.28125 10.429688 18.316406 10.269531 17.289062 10.179688 C 16.773438 9.460938 16.242188 8.8125 15.707031 8.234375 C 15.988281 7.957031 16.269531 7.699219 16.542969 7.476562 C 17.242188 6.90625 17.90625 6.519531 18.460938 6.339844 C 18.734375 6.25 18.976562 6.210938 19.1875 6.214844 Z M 11.019531 6.21875 C 11.230469 6.210938 11.472656 6.25 11.75 6.339844 C 12.304688 6.519531 12.96875 6.910156 13.667969 7.480469 C 13.9375 7.695312 14.210938 7.949219 14.488281 8.21875 C 13.949219 8.800781 13.414062 9.460938 12.894531 10.183594 C 11.871094 10.277344 10.910156 10.433594 10.035156 10.648438 C 9.953125 10.320312 9.882812 9.996094 9.832031 9.691406 C 9.691406 8.800781 9.6875 8.03125 9.808594 7.460938 C 9.929688 6.890625 10.160156 6.542969 10.46875 6.363281 C 10.625 6.277344 10.804688 6.226562 11.019531 6.21875 Z M 15.105469 8.851562 C 15.453125 9.234375 15.804688 9.652344 16.152344 10.101562 C 15.8125 10.085938 15.464844 10.078125 15.113281 10.078125 C 14.757812 10.078125 14.402344 10.085938 14.054688 10.101562 C 14.402344 9.652344 14.753906 9.234375 15.105469 8.851562 Z M 15.113281 10.949219 C 15.699219 10.949219 16.269531 10.972656 16.824219 11.011719 C 17.207031 11.5625 17.582031 12.144531 17.9375 12.761719 C 18.25 13.300781 18.53125 13.839844 18.789062 14.375 C 18.527344 14.917969 18.242188 15.464844 17.925781 16.011719 C 17.644531 16.496094 17.355469 16.953125 17.058594 17.398438 C 16.429688 17.449219 15.78125 17.476562 15.113281 17.476562 C 14.429688 17.476562 13.765625 17.449219 13.125 17.394531 C 12.835938 16.957031 12.546875 16.503906 12.273438 16.027344 C 11.957031 15.480469 11.671875 14.933594 11.410156 14.394531 C 11.671875 13.851562 11.960938 13.304688 12.277344 12.753906 C 12.632812 12.140625 13.003906 11.5625 13.382812 11.015625 C 13.945312 10.972656 14.523438 10.949219 15.113281 10.949219 Z M 17.933594 11.121094 C 18.644531 11.210938 19.3125 11.332031 19.929688 11.480469 C 19.746094 12.082031 19.519531 12.714844 19.246094 13.363281 C 19.066406 13.019531 18.882812 12.675781 18.683594 12.328125 C 18.441406 11.910156 18.191406 11.511719 17.933594 11.121094 Z M 12.25 11.128906 C 12 11.511719 11.753906 11.902344 11.515625 12.3125 C 11.316406 12.664062 11.125 13.011719 10.945312 13.359375 C 10.671875 12.714844 10.449219 12.085938 10.265625 11.488281 C 10.882812 11.339844 11.542969 11.21875 12.25 11.128906 Z M 20.78125 11.707031 C 21.085938 11.800781 21.382812 11.898438 21.652344 12.003906 C 22.476562 12.324219 23.125 12.703125 23.546875 13.09375 C 23.96875 13.484375 24.152344 13.855469 24.152344 14.214844 C 24.152344 14.574219 23.96875 14.945312 23.546875 15.332031 C 23.125 15.722656 22.476562 16.101562 21.652344 16.425781 C 21.351562 16.542969 21.023438 16.648438 20.679688 16.75 C 20.433594 15.992188 20.121094 15.203125 19.75 14.394531 C 20.175781 13.46875 20.523438 12.566406 20.78125 11.707031 Z M 9.433594 11.710938 C 9.6875 12.5625 10.03125 13.457031 10.453125 14.371094 C 10.078125 15.183594 9.761719 15.980469 9.515625 16.738281 C 9.1875 16.640625 8.867188 16.539062 8.574219 16.425781 C 7.753906 16.101562 7.101562 15.722656 6.679688 15.332031 C 6.257812 14.945312 6.078125 14.574219 6.078125 14.214844 C 6.078125 13.855469 6.257812 13.484375 6.679688 13.09375 C 7.101562 12.703125 7.753906 12.324219 8.574219 12.003906 C 8.84375 11.898438 9.132812 11.804688 9.433594 11.710938 Z M 15.113281 12.234375 C 13.929688 12.234375 12.960938 13.203125 12.960938 14.390625 C 12.960938 15.574219 13.929688 16.542969 15.113281 16.542969 C 16.296875 16.542969 17.265625 15.574219 17.265625 14.390625 C 17.265625 13.203125 16.296875 12.234375 15.113281 12.234375 Z M 15.113281 13.097656 C 15.832031 13.097656 16.40625 13.671875 16.40625 14.390625 C 16.40625 15.105469 15.832031 15.679688 15.113281 15.679688 C 14.394531 15.679688 13.824219 15.105469 13.824219 14.390625 C 13.824219 13.671875 14.394531 13.097656 15.113281 13.097656 Z M 19.257812 15.40625 C 19.480469 15.941406 19.679688 16.464844 19.84375 16.96875 C 19.324219 17.089844 18.773438 17.1875 18.195312 17.269531 C 18.359375 17.003906 18.527344 16.730469 18.6875 16.453125 C 18.886719 16.101562 19.074219 15.753906 19.257812 15.40625 Z M 10.957031 15.40625 C 11.136719 15.757812 11.324219 16.109375 11.527344 16.460938 C 11.6875 16.734375 11.851562 17.003906 12.015625 17.265625 C 11.4375 17.1875 10.886719 17.085938 10.371094 16.964844 C 10.535156 16.460938 10.730469 15.941406 10.957031 15.40625 Z M 10.121094 17.800781 C 10.902344 17.984375 11.746094 18.125 12.640625 18.21875 C 13.238281 19.085938 13.863281 19.859375 14.488281 20.539062 C 14.210938 20.8125 13.929688 21.070312 13.660156 21.292969 C 12.960938 21.859375 12.296875 22.246094 11.742188 22.425781 C 11.191406 22.605469 10.777344 22.582031 10.46875 22.40625 C 10.164062 22.226562 9.9375 21.882812 9.816406 21.3125 C 9.695312 20.746094 9.695312 19.976562 9.839844 19.085938 C 9.90625 18.683594 10 18.25 10.121094 17.800781 Z M 20.09375 17.804688 C 20.214844 18.253906 20.3125 18.691406 20.375 19.097656 C 20.519531 19.988281 20.523438 20.757812 20.402344 21.328125 C 20.28125 21.898438 20.050781 22.246094 19.742188 22.425781 C 19.429688 22.601562 19.015625 22.628906 18.460938 22.449219 C 17.90625 22.269531 17.242188 21.878906 16.542969 21.308594 C 16.269531 21.085938 15.988281 20.828125 15.707031 20.554688 C 16.335938 19.871094 16.964844 19.089844 17.566406 18.222656 C 18.464844 18.128906 19.3125 17.988281 20.09375 17.804688 Z M 13.765625 18.308594 C 14.207031 18.332031 14.65625 18.347656 15.113281 18.347656 C 15.558594 18.347656 15.992188 18.332031 16.417969 18.308594 C 15.980469 18.902344 15.535156 19.4375 15.089844 19.921875 C 14.648438 19.4375 14.203125 18.898438 13.765625 18.308594 Z M 13.765625 18.308594 " fill-opacity="1" fill-rule="nonzero"/></g><g clip-path="url(#ee6d91358d)"><g clip-path="url(#d11b239243)"><path fill="#ffffff" d="M 22.347656 3.929688 L 25.097656 3.929688 L 25.097656 6.675781 L 22.347656 6.675781 Z M 22.347656 3.929688 " fill-opacity="1" fill-rule="nonzero"/></g></g></svg>